<svg id="Layer_1" data-name="Layer 1" xmlns="http://www.w3.org/2000/svg" viewBox="0 0 1649.82 1226.73"><polyline points="164.4 0.88 57.56 148.36 51.75 164.62 70.33 159.98 55.24 186.69 79.63 180.88 28.53 248.24 27.37 261.01 18.08 267.98 4.14 297.01 36.66 271.46 45.95 257.52 49.43 231.98 72.66 209.91 66.85 240.11 88.92 199.46 146.98 177.4 182.98 144.88 144.66 230.81 144.66 243.59 133.04 254.04 90.08 349.27 248.01 122.81 313.05 154.17 358.33 164.62 395.5 170.43 299.11 254.04 299.11 271.46 317.69 262.17 342.08 252.88 351.37 245.91 418.72 202.94 353.69 254.04 324.86 277.95 306.08 293.52 352.53 263.33 385.05 238.94 393.17 242.43 400.14 236.62 468.66 180.88 451.24 237.78 473.3 182.04 474.46 193.65 450.08 257.52 468.66 229.65 474.46 235.46 440.79 314.43 473.3 255.2 450.08 316.75 518.59 234.3 511.63 298.17 501.17 327.2 473.3 365.52 434.98 410.81 486.08 364.36 487.24 370.17 448.92 559.46 480.27 470.04 522.08 402.69 515.11 452.62 524.4 451.46 530.21 407.33 544.14 403.85 531.37 388.75 554.59 297.01 627.75 218.04 681.17 171.59 686.98 178.56 640.53 256.36 717.17 171.59 718.34 211.07 704.4 220.36 681.17 302.81 711.37 233.14 680.01 322.56 704.4 288.88 711.37 301.65 668.4 392.24 671.88 400.36 703.24 350.43 671.88 414.3 764.79 287.72 760.14 345.78 748.53 399.2 714.85 443.33 709.04 460.75 657.95 513.01 731.11 449.14 678.85 688.36 678.85 698.82 684.66 701.14 716.01 590.82 769.43 506.04 758.98 607.07 781.04 510.69 788.01 515.33 797.3 504.88 786.85 488.62 789.17 472.36 862.34 349.27 862.34 402.69 877.43 334.17 880.92 351.59 883.24 336.49 889.04 338.81 884.4 379.46 892.53 509.52 887.88 571.07 889.04 625.65 899.5 558.3 906.46 521.14 922.72 406.17 927.37 388.75 940.14 379.46 952.92 434.04 944.79 579.2 951.75 604.75 964.53 515.33 971.5 495.59 1009.82 460.75 1006.34 557.14 1009.82 571.07 1004.01 583.85 1009.82 594.3 1013.3 539.72 1026.08 436.36 1020.27 398.04 1036.53 384.11 1095.75 414.3 1121.3 428.24 1127.11 439.85 1114.34 522.3 1099.24 579.2 1094.59 612.88 1099.24 629.14 1105.05 627.98 1172.4 458.43 1180.53 458.43 1186.34 480.49 1190.98 494.43 1202.59 582.69 1192.14 605.91 1206.08 709.27 1217.69 825.4 1229.3 927.59 1238.59 987.98 1244.4 1000.75 1246.72 938.04 1245.56 899.72 1265.3 984.49 1276.92 1083.2 1285.05 1115.72 1297.82 1141.27 1302.46 1133.14 1315.24 1130.82 1322.21 1135.46 1329.17 1174.94 1330.34 1183.07 1337.3 1186.56 1341.95 1200.49 1347.75 1205.14 1346.59 1167.98 1334.98 1164.49 1330.34 1150.56 1329.17 1129.65 1333.82 1121.53 1338.46 1104.11 1343.11 1121.53 1352.4 1128.49 1354.72 1162.17 1355.88 1190.04 1361.69 1194.69 1359.37 1119.2 1367.5 1095.98 1370.98 1133.14 1376.79 1140.11 1383.75 1130.82 1383.75 1079.72 1398.85 1043.72 1374.46 769.65 1405.5 709.27 1448.79 618.69 1441.82 727.85 1380.27 775.46 1422.08 752.24 1482.46 716.24 1485.95 738.3 1460.4 774.3 1440.66 798.69 1437.75 806.45 1437.17 807.98 1447.63 797.52 1473.17 776.62 1487.11 761.52 1490.59 810.3 1495.24 756.88 1510.34 739.46 1508.01 752.24 1568.4 686.04 1576.53 805.65 1550.98 860.24 1545.17 884.62 1585.82 798.69 1612.53 742.94 1605.56 784.75 1589.3 833.52 1585.82 869.52 1583.5 877.65 1534.72 904.36 1534.72 889.27 1503.37 922.94 1474.34 943.85 1469.69 953.14 1498.72 940.36 1506.85 929.91 1506.85 940.36 1592.79 902.04 1599.75 951.98 1602.08 968.24 1600.92 982.17 1570.72 1044.88 1552.14 1077.4 1556.79 1084.36 1584.66 1050.69 1627.63 1012.36 1642.72 1003.07 1591.63 1082.04 1575.37 1115.72 1542.85 1157.53 1532.4 1177.27 1524.27 1073.91 1525.43 1026.3 1505.69 1071.59 1498.72 1109.91 1491.75 1068.11 1487.11 1107.59 1476.66 1158.69 1473.17 1198.17 1478.98 1224.88 1496.4 1220.23 1512.66 1219.07 1532.4 1206.3 1556.79 1181.91 1577.69 1150.56 1603.24 1118.04 1609.05 1114.56 1648.53 1048.36" fill="none" stroke="#66c" stroke-miterlimit="10" stroke-width="3"/></svg>